<?xml version="1.0" standalone="no"?><!DOCTYPE svg PUBLIC "-//W3C//DTD SVG 1.1//EN" "http://www.w3.org/Graphics/SVG/1.1/DTD/svg11.dtd"><svg t="1740110538912" class="icon" viewBox="0 0 1029 1024" version="1.1" xmlns="http://www.w3.org/2000/svg" p-id="30682" xmlns:xlink="http://www.w3.org/1999/xlink" width="200.9765625" height="200"><path d="M514.218766 0A514.216004 514.216004 0 0 0 0.002762 514.112934a514.216004 514.216004 0 0 0 1028.328938 0A514.216004 514.216004 0 0 0 514.321836 0z m0 183.464519a186.144338 186.144338 0 1 1-185.525919 186.865828 186.144338 186.144338 0 0 1 185.525919-186.865828z m240.152994 603.268445c-27.416608 1.752189-61.841973 1.752189-103.069955 1.752189l-274.475289-1.752189c-42.464821 0-76.787116 0-103.069955-1.752189a35.765274 35.765274 0 0 1-4.638148-0.61842 37.620533 37.620533 0 0 1-29.581077-44.21701 297.150679 297.150679 0 0 1 108.429593-173.157524 36.692904 36.692904 0 0 1 41.227982-1.752189 233.247307 233.247307 0 0 0 249.53236 1.752189 36.692904 36.692904 0 0 1 41.227982 1.752189A297.562959 297.562959 0 0 1 788.384845 741.794464a34.219225 34.219225 0 0 1 0.61842 4.535078 37.826673 37.826673 0 0 1-34.837645 40.403422z" fill="#48b5fa" p-id="30683"></path></svg>