<?xml version="1.0" standalone="no"?><!DOCTYPE svg PUBLIC "-//W3C//DTD SVG 1.1//EN" "http://www.w3.org/Graphics/SVG/1.1/DTD/svg11.dtd"><svg t="1740970473148" class="icon" viewBox="0 0 1070 1024" version="1.1" xmlns="http://www.w3.org/2000/svg" p-id="14048" xmlns:xlink="http://www.w3.org/1999/xlink" width="208.984375" height="200"><path d="M751.327051 796.932269a133.569254 133.569254 0 0 1 0-267.138507H1068.554028v-160.283104a66.784627 66.784627 0 0 0-66.784627-66.784627H66.784627a66.784627 66.784627 0 0 0-66.784627 66.784627v587.704715a66.784627 66.784627 0 0 0 66.784627 66.784627h934.984774a66.784627 66.784627 0 0 0 66.784627-66.784627v-160.283104zM917.620772 235.941404L796.072751 24.901984a46.749239 46.749239 0 0 0-66.784627-17.364003L336.594519 235.941404z" fill="#f4ea2a" p-id="14049"></path><path d="M729.288124 663.363016m-50.08847 0a50.08847 50.08847 0 1 0 100.17694 0 50.08847 50.08847 0 1 0-100.17694 0Z" fill="#f4ea2a" p-id="14050"></path></svg>